<svg id="SvgjsSvg1050" width="288" height="288" xmlns="http://www.w3.org/2000/svg" version="1.1" xmlns:xlink="http://www.w3.org/1999/xlink" xmlns:svgjs="http://svgjs.com/svgjs"><defs id="SvgjsDefs1051"></defs><g id="SvgjsG1052"><svg xmlns="http://www.w3.org/2000/svg" viewBox="0 0 72 72" width="288" height="288"><g fill="none" fill-rule="evenodd"><rect width="72" height="72" fill="#154062" rx="4" class="color154062 svgShape"></rect><path fill="#ffffff" d="M35.022 45.846V33.021c0-2.117-.937-3.542-3.256-3.542-1.914 0-3.707 1.303-4.562 2.606v13.761h-4.277V33.021c0-2.117-.895-3.542-3.217-3.542-1.914 0-3.664 1.343-4.56 2.606v13.761h-4.276V26.181h4.275v2.647c.856-1.181 3.423-3.135 6.435-3.135 2.932 0 4.724 1.465 5.375 3.583 1.1-1.751 3.706-3.583 6.679-3.583 3.584 0 5.66 1.954 5.66 5.944v14.21h-4.276zm6.662-9.852c0-5.701 4.154-10.301 9.977-10.301 5.904 0 9.651 4.478 9.651 10.667v1.059H46.163c.327 2.932 2.525 5.415 6.232 5.415 1.954 0 4.194-.774 5.619-2.2l1.953 2.81c-1.995 1.874-4.887 2.892-7.98 2.892-5.946 0-10.303-4.113-10.303-10.342zm9.937-6.8c-3.625 0-5.336 2.81-5.498 5.171H57.2c-.124-2.32-1.712-5.17-5.58-5.17z" class="colorFFF svgShape"></path></g></svg></g></svg>