<svg xmlns="http://www.w3.org/2000/svg" version="1.1" xmlns:xlink="http://www.w3.org/1999/xlink" xmlns:svgjs="http://svgjs.dev/svgjs" width="1440" height="560" preserveAspectRatio="none" viewBox="0 0 1440 560"><g mask="url(&quot;#SvgjsMask1400&quot;)" fill="none"><rect width="1440" height="560" x="0" y="0" fill="url(&quot;#SvgjsRadialGradient1401&quot;)"></rect><path d="M1512 560L0 560 L0 348.9Q62.35 291.25, 120 353.6Q120.96 282.56, 192 283.53Q218.33 237.86, 264 264.18Q317.51 245.69, 336 299.21Q397.81 289.01, 408 350.82Q454.63 277.45, 528 324.08Q571.46 295.54, 600 339Q626.47 245.47, 720 271.93Q796.96 228.89, 840 305.85Q889.13 234.98, 960 284.1Q1057.17 261.27, 1080 358.45Q1094.86 301.31, 1152 316.16Q1199.58 243.74, 1272 291.32Q1322.33 221.64, 1392 271.97Q1489.29 249.26, 1512 346.55z" fill="rgba(24, 47, 93, 1)"></path><path d="M1464 560L0 560 L0 383.95Q36.78 300.73, 120 337.5Q169.67 315.17, 192 364.84Q251.04 351.88, 264 410.92Q338.25 365.17, 384 439.41Q400.22 383.63, 456 399.85Q475.74 347.59, 528 367.32Q552.34 319.66, 600 344Q686.66 310.66, 720 397.33Q765.94 371.27, 792 417.22Q829.75 334.97, 912 372.71Q955.86 344.57, 984 388.43Q1030.34 362.77, 1056 409.11Q1074.05 355.16, 1128 373.21Q1147.32 320.53, 1200 339.85Q1247.55 315.4, 1272 362.95Q1350.43 321.38, 1392 399.81Q1434.8 370.61, 1464 413.4z" fill="rgba(41, 87, 144, 1)"></path><path d="M1488 560L0 560 L0 513.85Q44.76 438.61, 120 483.36Q130.86 422.22, 192 433.08Q217.64 386.72, 264 412.36Q318.38 394.74, 336 449.12Q407.7 400.82, 456 472.52Q486.38 430.9, 528 461.28Q556 417.27, 600 445.27Q627.44 400.71, 672 428.15Q749.96 386.11, 792 464.07Q818.14 418.22, 864 444.36Q948.92 409.28, 984 494.2Q1051.24 441.44, 1104 508.68Q1117.57 450.25, 1176 463.81Q1195.69 411.5, 1248 431.19Q1316.2 379.39, 1368 447.59Q1451.12 410.71, 1488 493.83z" fill="rgba(37, 70, 125, 1)"></path><path d="M1512 560L0 560 L0 557.79Q55.35 493.13, 120 548.48Q156.77 465.25, 240 502.03Q287.75 477.77, 312 525.52Q392.86 486.38, 432 567.23Q476.35 491.58, 552 535.92Q580.02 491.94, 624 519.97Q702.66 478.63, 744 557.3Q815.72 509.01, 864 580.73Q872.77 517.5, 936 526.28Q963.42 481.7, 1008 509.13Q1086.35 467.48, 1128 545.82Q1176.85 474.67, 1248 523.52Q1276.18 479.7, 1320 507.89Q1420.82 488.7, 1440 589.52Q1464.95 542.47, 1512 567.43z" fill="#356cb1"></path></g><defs><mask id="SvgjsMask1400"><rect width="1440" height="560" fill="#ffffff"></rect></mask><radialGradient cx="50%" cy="50%" r="772.53" gradientUnits="userSpaceOnUse" id="SvgjsRadialGradient1401"><stop stop-color="rgba(14, 42, 71, 1)" offset="0"></stop><stop stop-color="rgba(184, 43, 43, 1)" offset="0.22"></stop></radialGradient></defs></svg>